<svg viewBox="0 0 448 360" height="360" width="448"><g><svg></svg></g><g><svg viewBox="0 0 448 360" height="360" width="448"><g><path xmlns="http://www.w3.org/2000/svg" d="M193.855 44.683c1.378 0 2.494 1.116 2.495 2.494 0 1.378-1.116 2.494-2.495 2.495h-23.846l-17.167 17.167c-0.973 0.973-2.551 0.973-3.53 0-0.973-0.973-0.973-2.551 0-3.529l13.644-13.645h-40.378c-11.518 0-19.151 2.688-23.815 8.113-4.739 5.519-6.66 14.056-6.66 25.63 0 0.069 0 0.137-0.006 0.206l0.212 36.692 14.692-14.692c0.973-0.973 2.551-0.973 3.53 0 0.973 0.973 0.973 2.551 0 3.53l-18.178 18.178c0.206 35.832 0.193 71.358-0.013 107.19 25.486 25.2 50.617 50.312 75.811 75.791h25.38c1.378 0 2.494 1.116 2.495 2.495 0 1.378-1.116 2.494-2.495 2.494h-20.448l25.942 26.241 0.006-0.006c8.188 8.188 15.577 12.859 22.824 13.413 7.146 0.543 14.442-2.956 22.586-11.093l28.555-28.555h-20.722c-1.378 0-2.494-1.116-2.495-2.494 0-1.378 1.116-2.494 2.495-2.495h25.711l16.625-16.625c0.973-0.973 2.551-0.973 3.529 0 0.973 0.973 0.973 2.551 0 3.53l-13.101 13.102h40.377c11.518 0 19.151-2.688 23.815-8.113 4.739-5.519 6.66-14.056 6.66-25.63h0.013l-0.212-36.898-16.014 16.014c-0.973 0.973-2.551 0.973-3.53 0-0.973-0.973-0.973-2.551 0-3.53l19.5-19.5c-0.206-35.832-0.193-71.358 0.013-107.19-25.486-25.2-50.617-50.312-75.811-75.791h-26.147c-1.378 0-2.494-1.116-2.495-2.495 0-1.378 1.116-2.494 2.495-2.494h21.215l-25.824-26.123c-0.044-0.037-0.081-0.075-0.124-0.112-8.188-8.188-15.577-12.859-22.824-13.413-7.146-0.543-14.442 2.956-22.586 11.093l-28.555 28.555h18.858zM122.578 44.683h45.367l32.078-32.078c9.248-9.248 17.81-13.195 26.484-12.534 8.568 0.649 16.956 5.824 25.985 14.854 0.05 0.05 0.094 0.094 0.137 0.143l29.278 29.615h43.508c13.071 0 21.919 3.268 27.594 9.871 5.6 6.517 7.864 16.101 7.864 28.867 0 0.081-0.006 0.156-0.012 0.23l-0.225 39.742 28.43 28.112 0.006-0.006c9.03 9.03 14.206 17.411 14.854 25.985 0.661 8.674-3.293 17.236-12.534 26.484l-30.768 30.768 0.237 41.843h0.012c0 12.765-2.27 22.35-7.864 28.867-5.675 6.604-14.524 9.872-27.594 9.871h-45.366l-32.078 32.078c-9.248 9.248-17.81 13.195-26.484 12.534-8.568-0.649-16.956-5.824-25.985-14.854l0.006-0.006-29.421-29.758h-43.509c-13.071 0-21.919-3.268-27.594-9.872-5.6-6.517-7.864-16.101-7.863-28.866h0.012l0.231-39.972-28.293-27.969c-0.05-0.044-0.1-0.087-0.143-0.137-9.03-9.03-14.206-17.411-14.854-25.985-0.661-8.674 3.293-17.236 12.534-26.484l30.768-30.768-0.237-41.607c-0.006-0.075-0.012-0.156-0.012-0.23 0-12.765 2.27-22.35 7.864-28.867 5.675-6.604 14.524-9.872 27.594-9.871zM87.682 179.997l-0.274-47.724-27.276 27.276c-8.138 8.138-11.636 15.44-11.094 22.587 0.549 7.246 5.226 14.642 13.413 22.823 0.037 0.037 0.081 0.081 0.113 0.125l24.837 24.551 0.281-49.644zM92.303 241.483l-0.2 35.09h0.013c0 11.58 1.921 20.117 6.66 25.63 4.664 5.432 12.297 8.113 23.815 8.113h38.576l-33.55-33.936-35.308-34.903zM325.415 49.672h-38.575l33.549 33.936 35.308 34.902 0.2-34.884c-0.006-0.069-0.006-0.137-0.007-0.205 0-11.58-1.921-20.117-6.66-25.63-4.664-5.432-12.297-8.113-23.815-8.113zM360.599 130.352l-0.281 49.645 0.274 47.724 27.276-27.276c8.138-8.138 11.636-15.44 11.094-22.587-0.549-7.252-5.226-14.642-13.413-22.824l0.006-0.006-24.956-24.669z" fill="#89939e" fill-rule="nonzero" stroke="none" stroke-width="1" stroke-linecap="butt" stroke-linejoin="miter" stroke-miterlimit="10" stroke-dasharray="" stroke-dashoffset="0" font-family="none" font-weight="none" font-size="none" text-anchor="none" style="mix-blend-mode: normal" data-fill-palette-color="tertiary"></path></g><g transform="matrix(1,0,0,1,112,119.3745319475338)"><svg viewBox="0 0 224 121.25093610493239" height="121.25093610493239" width="224"><g><svg viewBox="0 0 332.5335151648352 180" height="121.25093610493239" width="224"><g><svg viewBox="0 0 179.25824175824175 180" height="180" width="179.25824175824175"><g id="textblocktransform"><svg viewBox="0 0 179.25824175824175 180" height="180" width="179.25824175824175" id="textblock"><g><svg viewBox="0 0 179.25824175824175 180" height="180" width="179.25824175824175"><g transform="matrix(1,0,0,1,0,0)"><svg width="179.25824175824175" viewBox="4.150000095367432 -35.54999923706055 35.39999771118164 35.54999923706055" height="180" data-palette-color="#213a3c"><path d="M4.15-35.55L4.15 0 8.59 0 8.59-25.63Q8.59-26.37 8.57-27.28 8.54-28.2 8.45-28.93L8.45-28.93 8.64-28.93Q8.79-28.2 9.08-27.28 9.38-26.37 9.67-25.63L9.67-25.63 19.78 0 23.83 0 33.94-25.63Q34.23-26.37 34.52-27.28 34.81-28.2 34.96-28.93L34.96-28.93 35.16-28.93Q35.06-28.2 35.03-27.28 35.01-26.37 35.01-25.63L35.01-25.63 35.01 0 39.55 0 39.55-35.55 33.5-35.55 22.95-8.81Q22.66-8.08 22.4-7.29 22.14-6.49 21.95-5.76L21.95-5.76 21.75-5.76Q21.56-6.49 21.3-7.29 21.04-8.08 20.75-8.81L20.75-8.81 10.21-35.55 4.15-35.55Z" opacity="1" transform="matrix(1,0,0,1,0,0)" fill="#213a3c" class="wordmark-text-0" data-fill-palette-color="primary" id="text-0"></path></svg></g></svg></g></svg></g></svg></g><g transform="matrix(1,0,0,1,221.75192175824176,34.6092032967033)"><svg viewBox="0 0 110.7815934065934 110.7815934065934" height="110.7815934065934" width="110.7815934065934"><g data-palette-color="#39cccc"><rect width="30.280302197802197" height="110.7815934065934" fill="#39cccc" stroke="transparent" data-fill-palette-color="accent" x="0" fill-opacity="1"></rect><rect width="30.280302197802197" height="110.7815934065934" fill="#39cccc" stroke="transparent" data-fill-palette-color="accent" x="36.9271978021978" fill-opacity="0.75"></rect><rect width="30.280302197802197" height="110.7815934065934" fill="#39cccc" stroke="transparent" data-fill-palette-color="accent" x="73.8543956043956" fill-opacity="0.5"></rect></g></svg></g></svg></g></svg></g></svg></g><defs></defs></svg>